<svg width="69" height="68" viewBox="0 0 69 68" fill="none" xmlns="http://www.w3.org/2000/svg">
<g clip-path="url(#clip0_2_124)">
<path d="M34.8929 6.11982C43.9618 6.11982 45.036 6.15433 48.6174 6.31773C51.9288 6.46887 53.7272 7.02218 54.9242 7.48718C56.5094 8.10331 57.641 8.83944 58.8294 10.0279C60.0179 11.2163 60.754 12.3479 61.37 13.9331C61.8351 15.1301 62.3884 16.9285 62.5396 20.2398C62.703 23.8213 62.7375 24.8955 62.7375 33.9644C62.7375 43.0333 62.703 44.1074 62.5396 47.6888C62.3884 51.0003 61.8351 52.7987 61.37 53.9956C60.754 55.5808 60.0179 56.7124 58.8294 57.9008C57.641 59.0893 56.5094 59.8254 54.9242 60.4414C53.7272 60.9065 51.9288 61.4599 48.6174 61.611C45.0365 61.7744 43.9624 61.8089 34.8929 61.8089C25.8235 61.8089 24.7494 61.7744 21.1685 61.611C17.857 61.4599 16.0586 60.9065 14.8618 60.4414C13.2765 59.8254 12.1449 59.0893 10.9565 57.9008C9.76801 56.7124 9.03189 55.5808 8.41589 53.9956C7.95075 52.7987 7.39745 51.0003 7.24631 47.6889C7.08291 44.1074 7.04839 43.0333 7.04839 33.9644C7.04839 24.8955 7.08291 23.8213 7.24631 20.2399C7.39745 16.9285 7.95075 15.1301 8.41589 13.9331C9.03189 12.3479 9.76801 11.2163 10.9565 10.0279C12.1449 8.83944 13.2765 8.10331 14.8618 7.48718C16.0586 7.02218 17.857 6.46887 21.1684 6.31773C24.7499 6.15433 25.824 6.11982 34.8929 6.11982ZM34.8929 0C25.6687 0 24.5122 0.0390982 20.8896 0.204389C17.2743 0.369411 14.8055 0.943481 12.645 1.78315C10.4115 2.65113 8.51741 3.81248 6.62923 5.70066C4.74106 7.58883 3.57971 9.48294 2.71172 11.7164C1.87206 13.8769 1.29799 16.3458 1.13297 19.961C0.967674 23.5835 0.928711 24.7401 0.928711 33.9644C0.928711 43.1886 0.967674 44.3452 1.13297 47.9677C1.29799 51.583 1.87206 54.0518 2.71172 56.2123C3.57971 58.4456 4.74106 60.3399 6.62923 62.2281C8.51741 64.1162 10.4115 65.2776 12.645 66.1456C14.8055 66.9852 17.2743 67.5593 20.8896 67.7243C24.5122 67.8896 25.6687 67.9286 34.8929 67.9286C44.1172 67.9286 45.2738 67.8896 48.8963 67.7243C52.5115 67.5593 54.9804 66.9852 57.1409 66.1456C59.3744 65.2776 61.2685 64.1162 63.1566 62.2281C65.0448 60.3399 66.2062 58.4458 67.0742 56.2123C67.9138 54.0518 68.4879 51.583 68.6529 47.9677C68.8182 44.3452 68.8573 43.1886 68.8573 33.9644C68.8573 24.7401 68.8182 23.5835 68.6529 19.961C68.4879 16.3458 67.9138 13.8769 67.0742 11.7164C66.2062 9.48294 65.0448 7.58883 63.1566 5.70066C61.2685 3.81248 59.3744 2.65113 57.1409 1.78315C54.9804 0.943481 52.5115 0.369411 48.8963 0.204389C45.2738 0.0390982 44.1172 0 34.8929 0ZM34.8929 16.5232C25.2605 16.5232 17.4518 24.3319 17.4518 33.9644C17.4518 43.5968 25.2605 51.4055 34.8929 51.4055C44.5254 51.4055 52.3341 43.5968 52.3341 33.9644C52.3341 24.3319 44.5254 16.5232 34.8929 16.5232ZM34.8929 45.2859C28.6403 45.2859 23.5714 40.217 23.5714 33.9644C23.5714 27.7117 28.6403 22.6429 34.8929 22.6429C41.1456 22.6429 46.2144 27.7117 46.2144 33.9644C46.2144 40.217 41.1456 45.2859 34.8929 45.2859ZM57.0988 15.8341C57.0988 18.0851 55.2742 19.9099 53.0232 19.9099C50.7722 19.9099 48.9474 18.0851 48.9474 15.8341C48.9474 13.5831 50.7722 11.7585 53.0232 11.7585C55.2742 11.7585 57.0988 13.5831 57.0988 15.8341Z" fill="#0A0A08"/>
</g>
<defs>
<clipPath id="clip0_2_124">
<rect width="67.9286" height="67.9286" fill="white" transform="translate(0.928711)"/>
</clipPath>
</defs>
</svg>
